<?xml version="1.0" encoding="UTF-8" standalone="no" ?>
<!DOCTYPE svg PUBLIC "-//W3C//DTD SVG 1.1//EN" "http://www.w3.org/Graphics/SVG/1.1/DTD/svg11.dtd">
<svg xmlns="http://www.w3.org/2000/svg" xmlns:xlink="http://www.w3.org/1999/xlink" version="1.1" width="1080" height="1080" viewBox="0 0 1080 1080" xml:space="preserve">
<desc>Created with Fabric.js 5.2.4</desc>
<defs>
</defs>
<rect x="0" y="0" width="100%" height="100%" fill="transparent"></rect>
<g transform="matrix(1 0 0 1 540 540)" id="8e1fd47e-9b1b-47dc-a1ee-7cab2af4aa35"  >
<rect style="stroke: none; stroke-width: 1; stroke-dasharray: none; stroke-linecap: butt; stroke-dashoffset: 0; stroke-linejoin: miter; stroke-miterlimit: 4; fill: rgb(255,255,255); fill-rule: nonzero; opacity: 1; visibility: hidden;" vector-effect="non-scaling-stroke"  x="-540" y="-540" rx="0" ry="0" width="1080" height="1080" />
</g>
<g transform="matrix(1 0 0 1 540 540)" id="9770551b-0c68-4d2b-b135-8360413afcd3"  >
</g>
<g transform="matrix(0.87 0 0 0.87 512.93 512.93)" id="8f0056e5-6f44-4ab0-a168-5ea1175437da"  >
<path style="stroke: rgb(0,0,0); stroke-width: 0; stroke-dasharray: none; stroke-linecap: butt; stroke-dashoffset: 0; stroke-linejoin: miter; stroke-miterlimit: 4; fill: rgb(255,252,252); fill-rule: nonzero; opacity: 1;" vector-effect="non-scaling-stroke"  transform=" translate(-224, -256)" d="M 256 80 C 256 62.3 241.7 48 224 48 C 206.3 48 192 62.3 192 80 L 192 224 L 48 224 C 30.3 224 16 238.3 16 256 C 16 273.7 30.3 288 48 288 L 192 288 L 192 432 C 192 449.7 206.3 464 224 464 C 241.7 464 256 449.7 256 432 L 256 288 L 400 288 C 417.7 288 432 273.7 432 256 C 432 238.3 417.7 224 400 224 L 256 224 L 256 80 z" stroke-linecap="round" />
</g>
<g transform="matrix(1 0 0 1 540 540)" id="3a81bc0b-6fc1-47d0-9078-9a5e47b9fed9"  >
<path style="stroke: rgb(0,0,0); stroke-width: 0; stroke-dasharray: none; stroke-linecap: butt; stroke-dashoffset: 0; stroke-linejoin: miter; stroke-miterlimit: 4; fill: rgb(255,255,255); fill-rule: nonzero; opacity: 1;" vector-effect="non-scaling-stroke"  transform=" translate(-224, -256)" d="M 256 80 C 256 62.3 241.7 48 224 48 C 206.3 48 192 62.3 192 80 L 192 224 L 48 224 C 30.3 224 16 238.3 16 256 C 16 273.7 30.3 288 48 288 L 192 288 L 192 432 C 192 449.7 206.3 464 224 464 C 241.7 464 256 449.7 256 432 L 256 288 L 400 288 C 417.7 288 432 273.7 432 256 C 432 238.3 417.7 224 400 224 L 256 224 L 256 80 z" stroke-linecap="round" />
</g>
<g transform="matrix(1 0 0 1 540 540)" id="11e5fc09-e0b8-4955-a6e1-ebe89011f5e4"  >
<path style="stroke: rgb(0,0,0); stroke-width: 0; stroke-dasharray: none; stroke-linecap: butt; stroke-dashoffset: 0; stroke-linejoin: miter; stroke-miterlimit: 4; fill: rgb(255,255,255); fill-rule: nonzero; opacity: 1;" vector-effect="non-scaling-stroke"  transform=" translate(-224, -256)" d="M 256 80 C 256 62.3 241.7 48 224 48 C 206.3 48 192 62.3 192 80 L 192 224 L 48 224 C 30.3 224 16 238.3 16 256 C 16 273.7 30.3 288 48 288 L 192 288 L 192 432 C 192 449.7 206.3 464 224 464 C 241.7 464 256 449.7 256 432 L 256 288 L 400 288 C 417.7 288 432 273.7 432 256 C 432 238.3 417.7 224 400 224 L 256 224 L 256 80 z" stroke-linecap="round" />
</g>
</svg>